<svg width="23" height="25" viewBox="0 0 23 25" fill="none" xmlns="http://www.w3.org/2000/svg">
<path d="M19.5708 8.33335H18.2024V6.00002C18.2024 2.78002 15.1372 0.166687 11.3604 0.166687C7.58364 0.166687 4.51842 2.78002 4.51842 6.00002V8.33335H3.15001C1.64477 8.33335 0.413208 9.38335 0.413208 10.6667V22.3334C0.413208 23.6167 1.64477 24.6667 3.15001 24.6667H19.5708C21.0761 24.6667 22.3077 23.6167 22.3077 22.3334V10.6667C22.3077 9.38335 21.0761 8.33335 19.5708 8.33335ZM11.3604 18.8334C9.85519 18.8334 8.62362 17.7834 8.62362 16.5C8.62362 15.2167 9.85519 14.1667 11.3604 14.1667C12.8657 14.1667 14.0972 15.2167 14.0972 16.5C14.0972 17.7834 12.8657 18.8334 11.3604 18.8334ZM15.6025 8.33335H7.11838V6.00002C7.11838 4.00502 9.02046 2.38335 11.3604 2.38335C13.7004 2.38335 15.6025 4.00502 15.6025 6.00002V8.33335Z" fill="#878E99"/>
</svg>
